/* XPM */
static char *_528700412519[] = {
/* columns rows colors chars-per-pixel */
"16 16 47 1 ",
"  c #0077CA",
". c #0077CB",
"X c #0077CC",
"o c #0078CA",
"O c #0078CB",
"+ c #0078CC",
"@ c #0078CD",
"# c #0079CD",
"$ c #0079CE",
"% c #007ACE",
"& c #007ACF",
"* c #007BCF",
"= c #007CCF",
"- c #007BD0",
"; c #007DD0",
": c #007DD1",
"> c #007DD2",
", c #007ED3",
"< c #007FD3",
"1 c #0080D5",
"2 c #0080D6",
"3 c #0081D6",
"4 c #0081D7",
"5 c #0083D9",
"6 c #0084D9",
"7 c #0086DD",
"8 c #0087DD",
"9 c #0086DE",
"0 c #0087DE",
"q c #008AE2",
"w c #008BE2",
"e c #008CE6",
"r c #008DE6",
"t c #0090EA",
"y c #0094EE",
"u c #0095EF",
"i c #0095F0",
"p c #0096F1",
"a c #009CF7",
"s c #009CF8",
"d c #009EF9",
"f c #009FF9",
"g c #009FFA",
"h c #009FFB",
"j c #00A1FD",
"k c #00A2FC",
"l c None",
/* pixels */
"llllllkkkkllllll",
"llllkssllkksllll",
"llllllllllllllll",
"llllllllllllllll",
"lyllllllllllllil",
"ltllllsaaaallltl",
"rrllllllliilllrr",
"qqllllllllrlllqq",
"70lllllll07lll77",
"66lll4lll44lll66",
"l5lll=;;=;-lll44",
"l;;lll++++lll;;l",
"llllllllllllllll",
"ll-l+llllll+l-ll",
"llllXX++++X+llll",
"lllllO..++.lllll"
};
