/* XPM */
static char *_530278835690[] = {
/* columns rows colors chars-per-pixel */
"64 64 2 1 ",
"  c #457DFF",
". c None",
/* pixels */
"................................................................",
"................................................................",
"................................................................",
"................................................................",
"................................................................",
"................................................................",
"................................................................",
"................................................................",
"..............                         .........................",
"................                        ........................",
".................                       ........................",
"..................                      ........................",
"....................                     .......................",
".....................                    .......................",
"................... ..                   .......................",
"...................  ..                   ......................",
"..................    .                   ......................",
"..................   ...                   .....................",
"..................   ....                  .....................",
".................   .....                  .....................",
".................   ......                  ....................",
".................   ......                  ....................",
"................   ........                 ....................",
"................   ........                  ...................",
"...............   .........                  ...................",
"...............   ..........                 ...................",
"...............   ..........                  ..................",
"..............   ...........                  ..................",
"..............   ............                  .................",
"..............  .............                  .................",
".............   .............                  .................",
".............   .....    .....                  ................",
".............  ....       ....                  ................",
"............   ...         ....                 ................",
"............   ...          ...                  ...............",
"...........   ...           ...                  ...............",
"...........   ...           ....                 ...............",
"...........   ....          ....                  ..............",
"..........   .....         .....                  ..............",
"..........   .....         ......                  .............",
"..........  .......       .......                  .............",
".........   .........   ..........                 .............",
".........   ......................                  ............",
"........   .......................                  ............",
"........   .......................                   ...........",
".......    .......................                   ...........",
".......    .......................                    ..........",
"......     .......................                    ..........",
"......     ......................                      .........",
".....      .....................                        ........",
"....       .....................                         .......",
"....        ...................                           ......",
"...          .................                             .....",
"..            ...............                                ...",
".              .............                                  ..",
"                ...........                                     ",
"................................................................",
"................................................................",
"................................................................",
"................................................................",
"................................................................",
"................................................................",
"................................................................",
"................................................................"
};
