/* XPM */
static char *_530278771427[] = {
/* columns rows colors chars-per-pixel */
"16 16 2 1 ",
"  c #457DFF",
". c None",
/* pixels */
"................",
"................",
"....      ......",
".....     ......",
".... .     .....",
".... .     .....",
".... ..     ....",
"... ...     ....",
"...    .    ....",
".. .   .     ...",
".. .. ..     ...",
".. .....      ..",
".  .....      ..",
"    ...         ",
"................",
"................"
};
