/* XPM */
static char *_528700384699[] = {
/* columns rows colors chars-per-pixel */
"32 32 110 2 ",
"   c #0077CA",
".  c #0077CB",
"X  c #0077CC",
"o  c #0077CD",
"O  c #0078CA",
"+  c #0078CB",
"@  c #0079CB",
"#  c #0078CC",
"$  c #0078CD",
"%  c #0079CD",
"&  c #0078CE",
"*  c #0079CE",
"=  c #007ACE",
"-  c #007BCE",
";  c #007ACF",
":  c #007BCF",
">  c #007BD0",
",  c #007CD0",
"<  c #007DD0",
"1  c #007CD1",
"2  c #007DD1",
"3  c #007CD2",
"4  c #007DD2",
"5  c #007ED2",
"6  c #007ED3",
"7  c #007FD3",
"8  c #007FD4",
"9  c #007FD5",
"0  c #0080D4",
"q  c #0080D5",
"w  c #0080D6",
"e  c #0081D6",
"r  c #0081D7",
"t  c #0082D6",
"y  c #0082D7",
"u  c #0081D8",
"i  c #0083D8",
"p  c #0083DA",
"a  c #0084DA",
"s  c #0084DB",
"d  c #0085DB",
"f  c #0085DC",
"g  c #0087DC",
"h  c #0086DD",
"j  c #0087DD",
"k  c #0087DE",
"l  c #0088DE",
"z  c #0087E1",
"x  c #0088E0",
"c  c #0089E0",
"v  c #0088E1",
"b  c #0089E1",
"n  c #008AE1",
"m  c #0089E2",
"M  c #008BE2",
"N  c #008BE4",
"B  c #008BE5",
"V  c #008CE4",
"C  c #008CE5",
"Z  c #008DE6",
"A  c #008EE6",
"S  c #008EE7",
"D  c #008EE8",
"F  c #008FE8",
"G  c #008FE9",
"H  c #0090EA",
"J  c #0091EB",
"K  c #0091EC",
"L  c #0092EC",
"P  c #0093EC",
"I  c #0093ED",
"U  c #0093EE",
"Y  c #0093EF",
"T  c #0094EE",
"R  c #0095EF",
"E  c #0096EF",
"W  c #0095F0",
"Q  c #0096F0",
"!  c #0096F1",
"~  c #0097F1",
"^  c #0096F2",
"/  c #0097F3",
"(  c #0097F4",
")  c #0098F3",
"_  c #0098F4",
"`  c #0099F4",
"'  c #0098F5",
"]  c #0099F5",
"[  c #009AF5",
"{  c #009AF6",
"}  c #009AF7",
"|  c #009BF8",
" . c #009CF8",
".. c #009DF8",
"X. c #009EF8",
"o. c #009EF9",
"O. c #009FF9",
"+. c #009FFA",
"@. c #009FFB",
"#. c #009FFC",
"$. c #00A0FB",
"%. c #00A0FC",
"&. c #00A1FC",
"*. c #00A1FD",
"=. c #00A2FD",
"-. c #00A1FE",
";. c #00A2FF",
":. c #00A4FD",
">. c #00A5FD",
",. c None",
/* pixels */
",.,.,.,.,.,.,.,.,.,.,.,.,.,.=.=.#.=.,.,.,.,.,.,.,.,.,.,.,.,.,.,.",
",.,.,.,.,.,.,.,.,.,.=.=.=.=.=.=.=.=.=.=.=.=.,.,.,.,.,.,.,.,.,.,.",
",.,.,.,.,.,.,.,.#.O.O.O.#.#.O.#.O.=.#.#.O.#.#.O.,.,.,.,.,.,.,.,.",
",.,.,.,.,.,.,.O.| O.O.O.O.,.,.,.,.,.,.O.{ O.O.| O.,.,.,.,.,.,.,.",
",.,.,.,.,.,.,.,.O.{ ,.,.,.,.,.,.,.,.,.,.,.,.O.| ,.,.,.,.,.,.,.,.",
",.,.,.,.,.{ ,.,.,.,.,.,.,.,.,.,.,.,.,.,.,.,.,.,.,.,.{ ,.,.,.,.,.",
",.,.,.,.,.,.{ ,.,.,.,.,.,.,.,.,.,.,.,.,.,.,.,.,.,.{ ,.,.,.,.,.,.",
",.,.,./ ,.,.,.,.,.,.,.,.,.,.,.,.,.,.,.,.,.,.,.,.,.,.,.,.{ ,.,.,.",
",.,.R / R ,.,.,.,.,.,.,.,.,.,.,.,.,.,.,.,.,.,.,.,.,.,./ R / ,.,.",
",.,.P L R ,.,.,.,.,.,.,.,.=.:.:.:.:.:.:.:.:.:.,.,.,.,.P P P ,.,.",
",.R L L ,.,.,.,.,.,.,.,.,.O.O.O.O.O.O.O.$.$.#.,.,.,.,.,.L L P ,.",
",.D S D ,.,.,.,.,.,.,.,.,.) { { { { ) { { ) | ,.,.,.,.,.D D D ,.",
",.S S S ,.,.,.,.,.,.,.,.,.( { / / { / / / / / ,.,.,.,.,.S S S ,.",
"N N S ,.,.,.,.,.,.,.,.,.,.,.,.,.,.,.,.P W P P ,.,.,.,.,.,.S N N ",
"M M M ,.,.,.,.,.,.,.,.,.,.,.,.,.,.,.,.D D D L ,.,.,.,.,.,.M M M ",
"M M k ,.,.,.,.,.,.,.,.,.,.,.,.,.,.,.,.S M M S ,.,.,.,.,.,.z M M ",
"l k k ,.,.,.,.,.,.,.,.,.,.,.,.,.,.,.,.M z M M ,.,.,.,.,.,.d k k ",
"d d d ,.,.,.,.,.,.d d d ,.,.,.,.,.,.,.p d d k ,.,.,.,.,.,.k d d ",
"d d d ,.,.,.,.,.,.p r r r ,.,.,.,.,.,.r r r k ,.,.,.,.,.,.d d p ",
",.r r p ,.,.,.,.,.r 5 0 r ,.,.,.,.,.5 r 8 5 ,.,.,.,.,.,.i r r ,.",
",.r r r ,.,.,.,.,.,.5 > 5 > 5 ,.5 5 5 5 > > ,.,.,.,.,.,.r r r ,.",
",.r r 0 r ,.,.,.,.,.: % > % % % % % : % % ,.,.,.,.,.,.8 0 r r ,.",
",.,.5 5 r ,.,.,.,.,.,.% > o % o % o % % ,.,.,.,.,.,.,.5 5 5 ,.,.",
",.,.5 5 5 ,.,.,.,.,.,.,.%   o @ @ @ @ ,.,.,.,.,.,.,.,.5 5 5 ,.,.",
",.,.,.5 ,.,.,.,.,.,.,.,.,.,.,.,.,.,.,.,.,.,.,.,.,.,.,.,.5 ,.,.,.",
",.,.,.,.,.,.> ,.,.,.,.,.,.,.,.,.,.,.,.,.,.,.,.,.,.> 5 ,.,.,.,.,.",
",.,.,.,.,.> % ,.,.,.,.,.,.,.,.,.,.,.,.,.,.,.,.,.,.,.> % ,.,.,.,.",
",.,.,.,.,.,.,.,.> % % ,.,.,.,.,.,.,.,.,.,.% % % ,.,.,.,.,.,.,.,.",
",.,.,.,.,.,.,.% o o @ o % o ,.,.,.,.% o   o o o % ,.,.,.,.,.,.,.",
",.,.,.,.,.,.,.,.o @ o     @ o   % @   @ % o   % ,.,.,.,.,.,.,.,.",
",.,.,.,.,.,.,.,.,.,.  @   @ %       @   @   ,.,.,.,.,.,.,.,.,.,.",
",.,.,.,.,.,.,.,.,.,.,.,.,.          @ ,.,.,.,.,.,.,.,.,.,.,.,.,."
};
