/* XPM */
static char *_530278824458[] = {
/* columns rows colors chars-per-pixel */
"32 32 2 1 ",
"  c #457DFF",
". c None",
/* pixels */
"................................",
"................................",
"................................",
"................................",
".......             ............",
".........           ............",
"..........           ...........",
".........            ...........",
".........  .         ...........",
"......... ..          ..........",
"........  ...         ..........",
"........  ...         ..........",
"........ .....         .........",
".......  .....         .........",
"....... ......         .........",
"......  ... ...         ........",
"......  .    ..         ........",
"...... ..     .          .......",
".....  ..     ..         .......",
".....  ..     ..         .......",
"..... ....   ....         ......",
"....  ...........         ......",
"....  ...........          .....",
"...   ...........          .....",
"...   ..........            ....",
"..    ..........             ...",
".      ........               ..",
"        .....                   ",
"................................",
"................................",
"................................",
"................................"
};
