/* XPM */
static char *_530278845326[] = {
/* columns rows colors chars-per-pixel */
"128 128 2 1 ",
"  c #457DFF",
". c None",
/* pixels */
"................................................................................................................................",
"................................................................................................................................",
"................................................................................................................................",
"................................................................................................................................",
"................................................................................................................................",
"................................................................................................................................",
"................................................................................................................................",
"................................................................................................................................",
"................................................................................................................................",
"................................................................................................................................",
"................................................................................................................................",
"................................................................................................................................",
"................................................................................................................................",
"................................................................................................................................",
"................................................................................................................................",
"................................................................................................................................",
"............................                                                  ..................................................",
".............................                                                 ..................................................",
"..............................                                                 .................................................",
"................................                                               .................................................",
"..................................                                             .................................................",
"...................................                                             ................................................",
".....................................                                           ................................................",
"......................................                                           ...............................................",
".......................................                                          ...............................................",
"........................................                                         ...............................................",
".........................................                                         ..............................................",
"..........................................                                        ..............................................",
"......................................  ...                                       ..............................................",
"......................................   ...                                       .............................................",
"......................................    ...                                      .............................................",
".....................................      ...                                     .............................................",
".....................................      ....                                     ............................................",
".....................................      ....                                     ............................................",
"....................................      ......                                     ...........................................",
"....................................      .......                                    ...........................................",
"....................................      .......                                    ...........................................",
"...................................      .........                                    ..........................................",
"...................................      .........                                    ..........................................",
"..................................      ...........                                   ..........................................",
"..................................      ...........                                    .........................................",
"..................................      ............                                   .........................................",
"..................................     .............                                   .........................................",
".................................      ..............                                   ........................................",
".................................     ...............                                   ........................................",
"................................      ................                                   .......................................",
"................................     .................                                   .......................................",
"................................     .................                                   .......................................",
"...............................      ..................                                   ......................................",
"...............................     ...................                                   ......................................",
"...............................     ...................                                    .....................................",
"..............................      ....................                                   .....................................",
"..............................     .....................                                   .....................................",
"..............................     .....................                                    ....................................",
".............................     .......................                                   ....................................",
".............................     .......................                                   ....................................",
"............................      ........................                                   ...................................",
"............................     .........................                                   ...................................",
"............................     .........................                                   ...................................",
"...........................     ...........................                                   ..................................",
"...........................     ...........................                                   ..................................",
"...........................     ...........................                                   ..................................",
"..........................     .............   .............                                   .................................",
"..........................     ..........         ..........                                   .................................",
"..........................     ........            .........                                    ................................",
".........................     ........               ........                                   ................................",
".........................     .......                ........                                   ................................",
"........................      ......                  ........                                   ...............................",
"........................     .......                   .......                                   ...............................",
"........................     .......                   .......                                   ...............................",
".......................     .......                    ........                                   ..............................",
".......................     .......                     .......                                   ..............................",
".......................     .......                     ........                                  ..............................",
"......................     ........                     ........                                   .............................",
"......................     ........                    .........                                   .............................",
".....................      ........                    ..........                                   ............................",
".....................     ..........                   ..........                                   ............................",
".....................     ..........                  ...........                                   ............................",
"....................     ............                 ............                                   ...........................",
"....................     ............                .............                                   ...........................",
"....................     ..............             ..............                                    ..........................",
"...................     ................           ................                                   ..........................",
"...................     ..................      ...................                                   ..........................",
"...................     ............................................                                   .........................",
"..................     .............................................                                   .........................",
"..................     .............................................                                   .........................",
".................      .............................................                                    ........................",
".................     ..............................................                                    ........................",
"................      ..............................................                                     .......................",
"................      ..............................................                                     .......................",
"...............       ..............................................                                      ......................",
"...............       ..............................................                                      ......................",
"..............        ..............................................                                       .....................",
"..............       ...............................................                                        ....................",
".............        ...............................................                                        ....................",
".............         .............................................                                          ...................",
"............          ............................................                                            ..................",
"...........           ............................................                                             .................",
"...........           ...........................................                                               ................",
"..........            ...........................................                                                ...............",
".........              .........................................                                                 ...............",
".........              ........................................                                                    .............",
"........               .......................................                                                      ............",
".......                 ......................................                                                       ...........",
"......                   ...................................                                                          ..........",
".....                    ...................................                                                           .........",
"....                      ................................                                                               .......",
"....                       ..............................                                                                 ......",
"...                         ............................                                                                    ....",
"..                            .........................                                                                      ...",
".                               ......................                                                                         .",
"                                .....................                                                                           ",
"................................................................................................................................",
"................................................................................................................................",
"................................................................................................................................",
"................................................................................................................................",
"................................................................................................................................",
"................................................................................................................................",
"................................................................................................................................",
"................................................................................................................................",
"................................................................................................................................",
"................................................................................................................................",
"................................................................................................................................",
"................................................................................................................................",
"................................................................................................................................",
"................................................................................................................................",
"................................................................................................................................",
"................................................................................................................................"
};
