/* XPM */
static char *_528700103089[] = {
/* columns rows colors chars-per-pixel */
"128 128 21 1 ",
"  c #0077C7",
". c #0077CB",
"X c #0079CD",
"o c #007DD2",
"O c #007DD8",
"+ c #0081D6",
"@ c #0084DB",
"# c #0088DE",
"$ c #0085E0",
"% c #008BE4",
"& c #008EE8",
"* c #0090E7",
"= c #0092EC",
"- c #0098EE",
"; c #0095F1",
": c #009AF5",
"> c #009EF9",
", c #00A1FD",
"< c #00ACFC",
"1 c #00B1FE",
"2 c None",
/* pixels */
"22222222222222222222222222222222222222222222222222222222222222222222222222222222222222222222222222222222222222222222222222222222",
"2222222222222222222222222222222222222222222222222222222,,,<,,,,,,>,,,,<,,>222222222222222222222222222222222222222222222222222222",
"2222222222222222222222222222222222222222222222222<,<<,,,,,,,,,,,,,,,,,,,,,,<,,,2222222222222222222222222222222222222222222222222",
"2222222222222222222222222222222222222222222222,<,,,,,,,,,,,,,,,,,,,,,,,,,,<,,<,,<,2222222222222222222222222222222222222222222222",
"2222222222222222222222222222222222222222222,,<,,,,,,,,,,,,,,,,,,,,,,,,,,,,,,,,,,,,,,,2222222222222222222222222222222222222222222",
"2222222222222222222222222222222222222222,,,,,,,,,,,,,,,,,,,,,,,,,,,,,,,,,,,,,,,,,,,,,,,,2222222222222222222222222222222222222222",
"22222222222222222222222222222222222222,,,,,,,,,,,,,,,,,,,,,,,,,,,,,,,,,,,,,,,,,,,,,,,,,,,,>2222222222222222222222222222222222222",
"22222222222222222222222222222222222>,,,,,,,,>,,,,,>,,,,,,>,,,,,>,,,,,>,,,,,>,,,,,,,,,,,,,,,,,22222222222222222222222222222222222",
"2222222222222222222222222222222222,,,,,,,>,>>,,,,,,,,,,,,,,,,,,,,,,,,,,,,,,,,,,,,,,,,,,,,,:,,>,222222222222222222222222222222222",
"22222222222222222222222222222222,,,,>>,,,,,,>,>,>,,>>,,>,>>,,>>,>,>,,,,,>,,,>,,>,,,:,,,,,,,,,,,,22222222222222222222222222222222",
"222222222222222222222222222222,,,-,:,>,:>>>>>,>,>,>>>,>>>>>,,>>,>,>>:,,:>>,>,>>>:,,:,,:,:,,,>>,>,,222222222222222222222222222222",
"22222222222222222222222222222,>>,:,,:,:,>>>>>>>>>>>>,>>>>>>>>>>,>>>,>>,,,>,>>>,>,,:,:,,-:,:>>>>>,,,22222222222222222222222222222",
"222222222222222222222222222,,>>>:,:,,:,,>>>:>>>>>>>>>:,:>>,,,<,,,,,,,,>:>>>>>,:,:,:,:,:,,:,,>>>>>::,,222222222222222222222222222",
"222222222222222222222222222,>>>>,,,::,::>>:,>>>>>>>>>,,,,>222222222222>,,,>,>::,,,,:,:,,:,,:>>>::,:,<222222222222222222222222222",
"2222222222222222222222222222,:::,-,,,--,:,,:>:>>>>>>222222222222222222222222:,>,,--,:,,-,-::>>::,:,,2222222222222222222222222222",
"22222222222222222222222222222<:,,:-::,,:,::,>>:>,2222222222222222222222222222222::,:,--,:,:,>:>>:,,22222222222222222222222222222",
"222222222222222222222222222222,>>>::>>>:>>:>>>222222222222222222222222222222222222>,:>:>>>>>>>>>>>222222222222222222222222222222",
"2222222222222222222222222222222>>:>::::>>>>222222222222222222222222222222222222222222>,::::::::>,2222222222222222222222222222222",
"22222222222222222222,,2222222222>>::>>:>>2222222222222222222222222222222222222222222222,,>:>>:>>2222222222,<22222222222222222222",
"2222222222222222222,::,2222222222>>::>>22222222222222222222222222222222222222222222222222>>:::>2222222222,>>>2222222222222222222",
"222222222222222222,::::,2222222222>>>:22222222222222222222222222222222222222222222222222222>:,2222222222,>:::>222222222222222222",
"222222222222222222>>::::>2222222222,22222222222222222222222222222222222222222222222222222222,2222222222>>::::>>22222222222222222",
"2222222222222222222,::::::2222222222222222222222222222222222222222222222222222222222222222222222222222:::::::>222222222222222222",
"22222222222222222222>:::>::22222222222222222222222222222222222222222222222222222222222222222222222222>>:::::>2222222222222222222",
"222222222222222222222:::::::222222222222222222222222222222222222222222222222222222222222222222222222:>:::::>22222222222222222222",
"2222222222222222222222>::::::2222222222222222222222222222222222222222222222222222222222222222222222,:::::::222222222222222222222",
"22222222222222222222222:;::;>>222222222222222222222222222222222222222222222222222222222222222222222>:;;;:>2222222222222222222222",
"222222222222,22222222222::;::22222222222222222222222222222222222222222222222222222222222222222222222:::::2222222222,222222222222",
"22222222222::>22222222222::>2222222222222222222222222222222222222222222222222222222222222222222222222::>2222222222>:=22222222222",
"22222222222>;::22222222222:22222222222222222222222222222222222222222222222222222222222222222222222222;:2222222222>;;:22222222222",
"2222222222::;:::222222222222222222222222222222222222222222222222222222222222222222222222222222222222222222222222:::;::2222222222",
"2222222222;;=;;;:2222222222222222222222222222222222222222222222222222222222222222222222222222222222222222222222:;;;==:;222222222",
"222222222:-=:-:;:=22222222222222222222222222222222222222222222222222222222222222222222222222222222222222222222;::;:-:=:222222222",
"22222222;;:=-;-===:222222222222222222222222222222222222222222222222222222222222222222222222222222222222222222:===-:=;;-=22222222",
"22222222==;=;;;;;;=:2222222222222222222222222222222222222222222222222222222222222222222222222222222222222222:;;;;====;;;22222222",
"2222222==:=:=-==-==::22222222222222222222222222222222222222222222222222222222222222222222222222222222222222:=====:=;=;==;2222222",
"2222222========;====:222222222222222222222222222221<<<<<<<<<<<<<<<<<<<<<<<<<<<<<<<<<<<<<<<12222222222222222:======;=====;2222222",
"222222=;=;=;=;===;-;;22222222222222222222222222222,,,,,,,,,,,,,,,,,,,,,,,,,,,,,,,,,,,,,,,,<22222222222222222=;;;==&;;=;==;222222",
"222222:==;;==;;=;===222222222222222222222222222222,>,,,,,,,,,,,,,,,,,,,,,,,,,,,,,,,,,,,,,,,22222222222222222;;==;=;==;=;=:222222",
"22222;============;2222222222222222222222222222222,>,,,,,,,,,>,>>,>,>,,>,>,,>,>,>,>,,>,,,,,222222222222222222==============22222",
"22222=====&=====&==2222222222222222222222222222222,,>>,>,,:,,>>>,>,,,:,,>>>>>>,>,>,,,:,,,>,222222222222222222==============22222",
"22222;==&=====;===22222222222222222222222222222222,>>>>>::,,>>>>>>:,:,,:>>>>>>>>>>:,:,,:>><2222222222222222222============;22222",
"2222===*&=====&&==22222222222222222222222222222222,:>>>>,,,:>>>>>,>::,,:>>>>>,>>>,>::,,:,:,2222222222222222222&=&==&&=*=&===2222",
"2222==*==&&=&&=&=222222222222222222222222222222222>>>:>>,:>>>>>>>>>>,,:,>>>>>>>>>>>>,,:,>,,22222222222222222222&&&==&&===&&=2222",
"2222=*=***=&&&=&&222222222222222222222222222222222>:::::::::::::::::-:::::::::::::::-:::::>22222222222222222222=&*&&&&&*&=&=2222",
"222=*&&&&&&&&&&&=222222222222222222222222222222222>:>:::::::::::::::::::::::::::::::::::::>22222222222222222222&&*&=&&&&&&&&=222",
"222;*&&&&&&&&&&=2222222222222222222222222222222222>;:::::::;::::::::::::::::::::::::::::::>222222222222222222222&&&&&&&&&&&&:222",
"222=&&&=****&*&=2222222222222222222222222222222222>:::::::::::::::::::::::::::::::::::::::>222222222222222222222=**&=****&=&&222",
"22;&&&&%&%&&&&&=2222222222222222222222222222222222:::::::;:::::;:;:::::::::::::::;:::::;:;>2222222222222222222222&&&&&%&&&&%*=22",
"22=%&%%&&%%&%%=22222222222222222222222222222222222:;;::;:;;:;;:;:::;;;:;:;::;;:;::;:;;;::;>2222222222222222222222=%&&%&%&%&%&=22",
"22&&**&&&&&&&%=22222222222222222222222222222222222::::::;:::::::::;::::::::;;:;;:=:;;:;:;:>2222222222222222222222*&&&&&&&&%&%&22",
"22=&%%&%%&%%&&%22222222222222222222222222222222222::;;;;::;::;:;;:;:-:;:;;;===============:2222222222222222222222*&%%&%%&&&%&=22",
"22&&*&%%&&&&&&2222222222222222222222222222222222222222222222222222222222222:;;;==;=;:==;;;:22222222222222222222222&%&%&&&&&%&&%2",
"2%%%%&%&%%%%%&2222222222222222222222222222222222222222222222222222222222222;=;;=;;;==;====:22222222222222222222222&&%&%%%%%%%%%2",
"2=%%%%%%%%%%%&2222222222222222222222222222222222222222222222222222222222222;;===;&;=======:22222222222222222222222=%%%&%%%%%%%=2",
"2&%%%%%%%%%%&=2222222222222222222222222222222222222222222222222222222222222=======&=======:22222222222222222222222&%%%%%%%%%%%&2",
"2%%%%%%%%%%#%&2222222222222222222222222222222222222222222222222222222222222===&***=*=&=&=&;22222222222222222222222%&%%#%%%%%#%%2",
"2&%#%%#%#%#%&%2222222222222222222222222222222222222222222222222222222222222=&*=*&&&**&&&&&;222222222222222222222222&#%#%$%%#%%%2",
"2%#%##%###%#&22222222222222222222222222222222222222222222222222222222222222=&&&&&&&&&&&&&&;222222222222222222222222&#%#%%%#%#%%2",
"2%%%%%%%%%&%&22222222222222222222222222222222222222222222222222222222222222=%&%%&%&&&%%&%%=222222222222222222222222=%%%%%%%%%%%2",
"2%%%%#%#%%%#=22222222222222222222222222222222222222222222222222222222222222*&&&&&&*%*&%&&&=222222222222222222222222&#%%%#%#%%#%2",
"2%$%#%%$##%#&22222222222222222222222222222222222222222222222222222222222222&%%%%%%%%%%%%%%=222222222222222222222222&%%##%%$%#%#%",
"2#%%#%#%%%##&22222222222222222222222222222222222222222222222222222222222222&%%%%%%%%%%%&%%&222222222222222222222222%%##%#%%##%%$",
"%###%#####%#&22222222222222222222222222222222222222222222222222222222222222%%#%#%#%#%#%$%%&222222222222222222222222##$######%###",
"%$##########&22222222222222222222222222222222222222222222222222222222222222&###%%##%#%%%##=222222222222222222222222%########$###",
"2#@######@##%22222222222222222222222222222222222222222222222222222222222222%%%%$%%%$%%%$$%&222222222222222222222222$#######@###%",
"2#@#@####@#@%22222222222222222222222222222222222222222222222222222222222222%####$$$$#$$###&222222222222222222222222%#@@#@@@#@#@#",
"2###@@$@###$%22222222222222222222222222222222222222222222222222222222222222%##$#$$$$@$$$$$%222222222222222222222222&@@#$###@###2",
"2#@@$@$#@@#@%22222222222222222222222222222222222222222222222222222222222222#@###@$#@@#####%222222222222222222222222&@@#@#$$@@#@2",
"2#@@@@@@@@@##@222222222222222222222@@@#@#@@#@@#@@#2222222222222222222222222#@@@@@@@@@@@@@@%222222222222222222222222%#@@@@@@@@@@2",
"2@@@#@@$@@@@#O222222222222222222222%@@##@#@@#@@##$2222222222222222222222222#@@@@@@@@@@#@O@%22222222222222222222222@#@@@@@@@@@@$2",
"2#@#@@@@@@@@#%222222222222222222222#O@@+@@+@@+@@@#2222222222222222222222222@@@O@+@@+@@+@@+$22222222222222222222222@@#@@@@@@@#@#2",
"2%@@@@@@#@#@@%222222222222222222222$@@@O@@@@@@@@@@2222222222222222222222222@@+@O+@++@+@+O+%22222222222222222222222%@+#@@@@@@+@#2",
"2#@@@@+@+@+@+#222222222222222222222++@++++++++++@+@22222222222222222222222@@@O@+++@++@+@+@#22222222222222222222222#@#+@@@@@@@@#2",
"2@@@@@@@@@+#@@222222222222222222222+@++++++++++++++22222222222222222222222@++++++++++++++@+22222222222222222222222@@+#@@@@@@@@@2",
"22#+@+@@@+#+@##222222222222222222222@+++++++++++O++O2222222222222222222222@o+++++++++++++@@22222222222222222222222#+#+@@@@@@@@@2",
"22#+++++++@#+@#222222222222222222222++++++o+++++++++222222222222222222222+++++++++o++++++O22222222222222222222222+#++@++@++++#22",
"22@++@@+@++++o#222222222222222222222@O+o+++++o++++X++2222222222222222222++++++++++++o+O+o#22222222222222222222222$+++@+@++@++@22",
"22#+@+++@+++@+@2222222222222222222222+o+ooo+ooooo++o+O22222222222222222O+oX++oX+ooo+oooo+o22222222222222222222222#+@+++@+++@O#22",
"22@+++@++++++++@222222222222222222222+oo+ooooo+oooooooO222222222222222++oo++X+X++oo+X+oo@22222222222222222222222@@++@++++++++#22",
"222#+@++@++@++@@222222222222222222222++ooo+X+X+Xoooooooo2222222222222oooooooooooooooX++XO22222222222222222222222+@+@++++@+++#222",
"222@o+++++++++++2222222222222222222222+XooooX+X+oooooooooo@22222222+ooXoooooooo+oo+X+XX+222222222222222222222222++++++++++++@222",
"222@@O+++O+OO@O++222222222222222222222XOX+XoX+X+oXooooXooXoo@@#@@oOo+X+XooooXXoXXXX+Xo+o22222222222222222222222+O@++O+++++O+@222",
"2222@+++++@++++++2222222222222222222222ooXXoXXXXoXXo.oXoXoXoXXXXXoXXX+XXoXXXXoXoX+oXooX222222222222222222222222++++++++++@+@O222",
"2222@+++++++++++++222222222222222222222O+++X++XXoXooXooooXoX+XX+XXX+XX+XXXooooooX+XXXXo22222222222222222222222+++++++++++++@2222",
"2222O@++++++O+++o+2222222222222222222222XXXoXXX+XoXXXo.XXoXoXXX+++XXX+XXooXX.XXXXXooXo222222222222222222222222+O+++X+++++O+O2222",
"22222++++X+++++X+++2222222222222222222222XXXXXXXo.Xoo.O.XXoXXXXXXXXoXXXXo.o.o.XoXoXXo222222222222222222222222o+oo+o+++X+++@22222",
"22222++X++X+++++o++22222222222222222222222X.+XXX.oXX.oXXXoXXX+XXXXXXXX+X.o.o.ooXXXXoX222222222222222222222222o++++++++++X++22222",
"22222++X+X++XX+++X++22222222222222222222222XoXXoXoXo.XO.XX.oXXXXXXXoXXoXoo.o.XXXXoXX222222222222222222222222O++++++++++o++O22222",
"222222+++++X++X+o+++222222222222222222222222XX.XXXXXXX.XXX.XXXXXXX.XX.XX..X.oXXXoXX2222222222222222222222222+oX+++XXX+Xo++222222",
"222222o+XX++X++XoooO+222222222222222222222222XX...X.XXXXXoXXXXXXXXXXXXXXXXX..X.oXX2222222222222222222222222++o+oX+o++Xo+++222222",
"2222222o++X+++X+oo+oo2222222222222222222222222Xo.o.XXXX.X..XXXXX.X.XXXXXXXX.X.XX222222222222222222222222222Ooooo+X+X+++XX2222222",
"2222222+X+ooo+X+oooo+O2222222222222222222222222XoXXXX.....XXXXXXXXXX XX .X..XoX222222222222222222222222222+@+X+XX+X+ooo+o2222222",
"22222222+X+o+Xooo+o++2222222222222222222222222222XX........... ..... X.....o.222222222222222222222222222222o++X++X+oo++X22222222",
"22222222X++ooXX+oXOo2222222222222222222222222222222oX........ ......X X...o222222222222222222222222222222222X++XX+XooXoo22222222",
"222222222XX+X+XXooo2222222222222222222222222222222222.....X......... X ..222222222222222222222222222222222222oX+XX+X+Xo222222222",
"222222222ooooXoXoX222222222222222222222222222222222222222........X....2222222222222222222222222222222222222222ooXoooooX222222222",
"2222222222ooXXooo2222222222222222222222222222222222222222222222222222222222222222222222222222222222222222222222ooooXoo2222222222",
"22222222222ooooo2222222222O22222222222222222222222222222222222222222222222222222222222222222222222222XX222222222o+ooo22222222222",
"22222222222o+oo2222222222OXo222222222222222222222222222222222222222222222222222222222222222222222222ooo+222222222XOXo22222222222",
"222222222222Oo2222222222oXXoo2222222222222222222222222222222222222222222222222222222222222222222222X+Xooo222222222X@222222222222",
"22222222222222222222222ooooooO22222222222222222222222222222222222222222222222222222222222222222222oOXooXoo2222222222222222222222",
"2222222222222222222222ooXooXoo222222222222222222222222222222222222222222222222222222222222222222222oXoXoooo222222222222222222222",
"222222222222222222222+oXo.XoX22222222222222222222222222222222222222222222222222222222222222222222222XoXXXXoo22222222222222222222",
"22222222222222222222O.o.XXoX2222222222222222222222222222222222222222222222222222222222222222222222222XXXXXooX2222222222222222222",
"2222222222222222222OXo..Xo.222222222222222222222222222222222222222222222222222222222222222222222222222oXoXoXXo222222222222222222",
"222222222222222222OXXX.ooo222222222oo222222222222222222222222222222222222222222222222222222.o2222222222oooXXXXo22222222222222222",
"222222222222222222oX.oooX222222222Xooo2222222222222222222222222222222222222222222222222222oOoo2222222222.XXXoo222222222222222222",
"2222222222222222222oXXoX222222222ooXX.o.222222222222222222222222222222222222222222222222.O.X.Xo2222222222oXXO2222222222222222222",
"22222222222222222222Xoo222222222XX..Xo.ooX22222222222222222222222222222222222222222222XXOX.Xo.o.2222222222Xo22222222222222222222",
"222222222222222222222X222222222XO.XXXXo..ooX2222222222222222222222222222222222222222XXoXX.XX..XOX2222222222222222222222222222222",
"222222222222222222222222222222XX.XX.XX.XXXXXoXo2222222222222222222222222222222222XXXX.XX.XXXX.X.XX222222222222222222222222222222",
"22222222222222222222222222222XXX.X...Xo..o....XXX.2222222222222222222222222222XX.X..X.X.Xo..X.oXXXX22222222222222222222222222222",
"2222222222222222222222222222XXXXXXo.XX.X..XXO...XXXXXX22222222222222222222X.XXXXXX.X.o.XX.X..X...XXX2222222222222222222222222222",
"222222222222222222222222222XX..X.X.X.X..XX...X.XXX.XXXXXooXXXX   XX.XXoXXXoXX.X..XX...XX.X.XX.X.X.XXO222222222222222222222222222",
"222222222222222222222222222XoX..X.X.X......X........XX.X...XXXXXoXXXX..XX..X.XX.X.........X...XX.X.X.222222222222222222222222222",
"22222222222222222222222222222XXXX..XX.X..XX.X..X.X.XXX.XX.XXX.XX...XX.X .X.XX....X.XX.X..XXX.XX.XXXX2222222222222222222222222222",
"222222222222222222222222222222.X..X..X.XX..X.XXXX.X...X........XX......X...X.XX.X.X.XX.XX...X...XX222222222222222222222222222222",
"22222222222222222222222222222222o.............................. ...............................o22222222222222222222222222222222",
"222222222222222222222222222222222.X X..X.........X.. XX X.X.X..X.....XX..X........X X. X......X222222222222222222222222222222222",
"22222222222222222222222222222222222X.X..X......XX..X....X.....X.....X.........X..X.........X.22222222222222222222222222222222222",
"2222222222222222222222222222222222222... X.X .....  ..X.X  XX X  X X  X  XX  XX . ... X.X.X2222222222222222222222222222222222222",
"2222222222222222222222222222222222222222 X........ ... ....  ...X . ..... .... ......X..2222222222222222222222222222222222222222",
"222222222222222222222222222222222222222222..X.X..... . . ...X . .. X......X  .. ..X.. 222222222222222222222222222222222222222222",
"222222222222222222222222222222222222222222222.XXX....  .........X ..X.........XXX..222222222222222222222222222222222222222222222",
"2222222222222222222222222222222222222222222222222.XXXX...  .  .   .  .  .X..XX.2222222222222222222222222222222222222222222222222",
"222222222222222222222222222222222222222222222222222222X......XX..X.X.XX. .222222222222222222222222222222222222222222222222222222",
"22222222222222222222222222222222222222222222222222222222222222222222222222222222222222222222222222222222222222222222222222222222"
};
