/* XPM */
static char *_528700142255[] = {
/* columns rows colors chars-per-pixel */
"64 64 208 2 ",
"   c #0075C8",
".  c #0076C9",
"X  c #0077C9",
"o  c #0077CA",
"O  c #0076CB",
"+  c #0077CB",
"@  c #0077CC",
"#  c #0077CD",
"$  c #0079C9",
"%  c #0078CA",
"&  c #0178CA",
"*  c #0078CB",
"=  c #0079CB",
"-  c #0078CC",
";  c #0079CC",
":  c #0078CD",
">  c #0079CD",
",  c #007ACD",
"<  c #007BCD",
"1  c #0078CE",
"2  c #0079CE",
"3  c #0079CF",
"4  c #007ACE",
"5  c #007ACF",
"6  c #007BCF",
"7  c #007CCF",
"8  c #007DCF",
"9  c #007AD0",
"0  c #007BD0",
"q  c #007AD1",
"w  c #007BD1",
"e  c #007BD2",
"r  c #007CD0",
"t  c #007DD0",
"y  c #007CD1",
"u  c #007DD1",
"i  c #007CD2",
"p  c #007DD2",
"a  c #007DD3",
"s  c #017DD3",
"d  c #007ED2",
"f  c #007FD2",
"g  c #007ED3",
"h  c #007FD3",
"j  c #007ED4",
"k  c #007FD4",
"l  c #007FD5",
"z  c #0080D3",
"x  c #0080D4",
"c  c #0080D5",
"v  c #0081D5",
"b  c #0082D5",
"n  c #0080D6",
"m  c #0081D6",
"M  c #0080D7",
"N  c #0081D7",
"B  c #0082D6",
"V  c #0082D7",
"C  c #0083D7",
"Z  c #0081D8",
"A  c #0081D9",
"S  c #0082D8",
"D  c #0083D8",
"F  c #0082D9",
"G  c #0083D9",
"H  c #0082DA",
"J  c #0083DA",
"K  c #0083DB",
"L  c #0084D8",
"P  c #0084D9",
"I  c #0084DA",
"U  c #0084DB",
"Y  c #0085DB",
"T  c #0086DB",
"R  c #0084DC",
"E  c #0085DC",
"W  c #0085DD",
"Q  c #0086DC",
"!  c #0086DD",
"~  c #0087DD",
"^  c #0085DE",
"/  c #0085DF",
"(  c #0086DE",
")  c #0087DE",
"_  c #0087DF",
"`  c #0088DD",
"'  c #0088DE",
"]  c #0088DF",
"[  c #0086E0",
"{  c #0087E1",
"}  c #0088E0",
"|  c #0089E0",
" . c #0088E1",
".. c #0089E1",
"X. c #008AE1",
"o. c #008BE1",
"O. c #0089E2",
"+. c #008AE2",
"@. c #008BE2",
"#. c #008AE3",
"$. c #008BE3",
"%. c #008CE3",
"&. c #0089E5",
"*. c #008BE4",
"=. c #008BE5",
"-. c #008BE6",
";. c #008CE4",
":. c #008DE4",
">. c #008CE5",
",. c #008DE5",
"<. c #008EE5",
"1. c #008CE6",
"2. c #008DE6",
"3. c #008CE7",
"4. c #008DE7",
"5. c #008EE6",
"6. c #008EE7",
"7. c #008FE7",
"8. c #008DE8",
"9. c #008DE9",
"0. c #008EE8",
"q. c #008FE8",
"w. c #008EE9",
"e. c #008FE9",
"r. c #008EEA",
"t. c #008FEA",
"y. c #0090E8",
"u. c #0090E9",
"i. c #0090EA",
"p. c #0091EA",
"a. c #0090EB",
"s. c #0092EB",
"d. c #0091EC",
"f. c #0092EC",
"g. c #0092ED",
"h. c #0093ED",
"j. c #0092EE",
"k. c #0093EE",
"l. c #0093EF",
"z. c #0094ED",
"x. c #0094EE",
"c. c #0095EE",
"v. c #0094EF",
"b. c #0095EF",
"n. c #0096EF",
"m. c #0094F0",
"M. c #0095F0",
"N. c #0096F0",
"B. c #0097F0",
"V. c #0096F1",
"C. c #0097F1",
"Z. c #0095F3",
"A. c #0097F2",
"S. c #0097F3",
"D. c #0097F4",
"F. c #0098F1",
"G. c #0098F3",
"H. c #0098F4",
"J. c #0099F4",
"K. c #0098F5",
"L. c #0099F5",
"P. c #009AF4",
"I. c #009AF5",
"U. c #0098F6",
"Y. c #0099F6",
"T. c #009AF6",
"R. c #009AF7",
"E. c #009BF7",
"W. c #009CF6",
"Q. c #009CF7",
"!. c #009DF7",
"~. c #009BF8",
"^. c #009BF9",
"/. c #009CF8",
"(. c #009DF8",
"). c #009CF9",
"_. c #009DF9",
"`. c #009EF8",
"'. c #009EF9",
"]. c #009FF9",
"[. c #009CFA",
"{. c #009DFB",
"}. c #009EFA",
"|. c #009FFA",
" X c #009EFB",
".X c #00A0FA",
"XX c #00A0FB",
"oX c #00A1FB",
"OX c #00A2FB",
"+X c #00A0FC",
"@X c #00A1FC",
"#X c #00A0FD",
"$X c #00A1FD",
"%X c #00A2FC",
"&X c #00A2FD",
"*X c #00A3FD",
"=X c #00A1FE",
"-X c #00A1FF",
";X c #00A2FE",
":X c #00A3FE",
">X c #00A2FF",
",X c #00A5FD",
"<X c #00A7FC",
"1X c #00A6FD",
"2X c #00A7FD",
"3X c #00A4FE",
"4X c #00A8FE",
"5X c None",
/* pixels */
"5X5X5X5X5X5X5X5X5X5X5X5X5X5X5X5X5X5X5X5X5X5X5X5X5X5X5X5X5X5X5X5X5X5X5X5X5X5X5X5X5X5X5X5X5X5X5X5X5X5X5X5X5X5X5X5X5X5X5X5X5X5X5X5X",
"5X5X5X5X5X5X5X5X5X5X5X5X5X5X5X5X5X5X5X5X5X5X5X5X4X1X1X+X1X+X+X+X+X+X1X+X+X1X1X+X5X5X5X5X5X5X5X5X5X5X5X5X5X5X5X5X5X5X5X5X5X5X5X5X",
"5X5X5X5X5X5X5X5X5X5X5X5X5X5X5X5X5X5X5X5X5X1X+X+X1X+X+X+X+X+X+X+X1X+X+X+X+X1X+X+X+X1X+X5X5X5X5X5X5X5X5X5X5X5X5X5X5X5X5X5X5X5X5X5X",
"5X5X5X5X5X5X5X5X5X5X5X5X5X5X5X5X5X5X+X+X+X+X+X+X+X+X+X+X+X+X1X+X+X+X1X+X+X+X+X+X+X+X+X+X+X+X5X5X5X5X5X5X5X5X5X5X5X5X5X5X5X5X5X5X",
"5X5X5X5X5X5X5X5X5X5X5X5X5X5X5X5XOX}.+X+X+X}.OX+X+X+X+X+X+X+X+X+X+X+X+X+X+X+X+X+X+X+X+XOX}.OX}.OX5X5X5X5X5X5X5X5X5X5X5X5X5X5X5X5X",
"5X5X5X5X5X5X5X5X5X5X5X5X5X5X5X+X}.OX}.}.}.}.}.}. X+X}.}.}.OX}.}.OX X}.}.+X+XOX+X}.!.OX}.}.}.}.}.+X5X5X5X5X5X5X5X5X5X5X5X5X5X5X5X",
"5X5X5X5X5X5X5X5X5X5X5X5X5X5X}.}.}.}.!.}.}.}.}.!.}.}.}.OX X+X5X5X5X5XOX}.OX}.}.}.!.}.}.}.}.!.}.}.+X}.5X5X5X5X5X5X5X5X5X5X5X5X5X5X",
"5X5X5X5X5X5X5X5X5X5X5X5X5X5XOX!.!.!.!.!.!.!.!.}.}.5X5X5X5X5X5X5X5X5X5X5X5X5X5X}.!.!.!.!.!.!.!.}.}.OX5X5X5X5X5X5X5X5X5X5X5X5X5X5X",
"5X5X5X5X5X5X5X5X5X5X5X5X5X5X5X}.}.L.!.!.}.!.5X5X5X5X5X5X5X5X5X5X5X5X5X5X5X5X5X5X5X5X}.}.L.!.~.~.+X5X5X5X5X5X5X5X5X5X5X5X5X5X5X5X",
"5X5X5X5X5X5X5X5X5X5X}.5X5X5X5X5X}.!.~.}.5X5X5X5X5X5X5X5X5X5X5X5X5X5X5X5X5X5X5X5X5X5X5X5X}.}.L.}.5X5X5X5X5X+X5X5X5X5X5X5X5X5X5X5X",
"5X5X5X5X5X5X5X5X5X}.L.}.5X5X5X5X5X}.5X5X5X5X5X5X5X5X5X5X5X5X5X5X5X5X5X5X5X5X5X5X5X5X5X5X5X5X}.5X5X5X5X5XOXL.L.5X5X5X5X5X5X5X5X5X",
"5X5X5X5X5X5X5X5X5X5XL.L.L.5X5X5X5X5X5X5X5X5X5X5X5X5X5X5X5X5X5X5X5X5X5X5X5X5X5X5X5X5X5X5X5X5X5X5X5X5X5X}.D.L.}.5X5X5X5X5X5X5X5X5X",
"5X5X5X5X5X5X5X5X5X5X5XL.L.L.5X5X5X5X5X5X5X5X5X5X5X5X5X5X5X5X5X5X5X5X5X5X5X5X5X5X5X5X5X5X5X5X5X5X5X5XL.L.G.L.5X5X5X5X5X5X5X5X5X5X",
"5X5X5X5X5X5X5X5X5X5X5X5XL.G.5X5X5X5X5X5X5X5X5X5X5X5X5X5X5X5X5X5X5X5X5X5X5X5X5X5X5X5X5X5X5X5X5X5X5X5XD.L.}.5X5X5X5X5X5X5X5X5X5X5X",
"5X5X5X5X5X5XL.5X5X5X5X5X5X5X5X5X5X5X5X5X5X5X5X5X5X5X5X5X5X5X5X5X5X5X5X5X5X5X5X5X5X5X5X5X5X5X5X5X5X5X5XL.5X5X5X5X5XL.5X5X5X5X5X5X",
"5X5X5X5X5XG.G.G.5X5X5X5X5X5X5X5X5X5X5X5X5X5X5X5X5X5X5X5X5X5X5X5X5X5X5X5X5X5X5X5X5X5X5X5X5X5X5X5X5X5X5X5X5X5X5X5XG.M.G.5X5X5X5X5X",
"5X5X5X5XM.G.v.B.B.5X5X5X5X5X5X5X5X5X5X5X5X5X5X5X5X5X5X5X5X5X5X5X5X5X5X5X5X5X5X5X5X5X5X5X5X5X5X5X5X5X5X5X5X5X5XM.G.v.B.v.5X5X5X5X",
"5X5X5X5Xv.v.v.v.v.v.5X5X5X5X5X5X5X5X5X5X5X5X5X5X5X5X5X5X5X5X5X5X5X5X5X5X5X5X5X5X5X5X5X5X5X5X5X5X5X5X5X5X5X5XM.v.v.v.v.v.5X5X5X5X",
"5X5X5Xk.v.s.v.v.k.v.5X5X5X5X5X5X5X5X5X5X5X5X5X5X5X4X4X1X4X4X4X4X1X<X1X4X4X<X4X<X1X<X4X4X1X5X5X5X5X5X5X5X5X5Xv.k.v.s.s.v.M.5X5X5X",
"5X5X5Xv.k.v.v.s.k.v.5X5X5X5X5X5X5X5X5X5X5X5X5X5X5X+X+X+X+X+X+X+X+X+X1X+X+X+X+X+X+X+X+X+X+X5X5X5X5X5X5X5X5X5Xk.k.v.v.v.k.v.5X5X5X",
"5X5Xk.s.s.s.k.k.k.5X5X5X5X5X5X5X5X5X5X5X5X5X5X5X5XOX}.!.}.!.}.}.OX!.}.}.}.!.}.}.OX!.}.}.}.5X5X5X5X5X5X5X5X5X5Xs.k.k.k.k.s.k.5X5X",
"5X5Xk.s.y.s.q.q.s.5X5X5X5X5X5X5X5X5X5X5X5X5X5X5X5X}.}.}..X.X}.OX}.}..X.XOXOX}.!.}.}..X.X}.5X5X5X5X5X5X5X5X5X5Xs.q.q.q.s.s.s.5X5X",
"5X5Xq.s.q.q.q.q.5X5X5X5X5X5X5X5X5X5X5X5X5X5X5X5X5X}.L.L.L.L.L.L.L.L.G.L.L.L.L.L.L.L.G.L.L.5X5X5X5X5X5X5X5X5X5X5Xq.q.q.q.q.q.5X5X",
"5Xk.q.q.q.q.q.s.5X5X5X5X5X5X5X5X5X5X5X5X5X5X5X5X5XL.!.!.G.G.G.L.L.G.!.G.G.G.!.P.L.G.!.G.L.5X5X5X5X5X5X5X5X5X5X5Xq.q.q.q.q.7.k.5X",
"5Xs.7.=.7.=.7.7.5X5X5X5X5X5X5X5X5X5X5X5X5X5X5X5X5XL.G.L.L.G.L.G.G.L.L.G.L.G.G.L.G.G.L.G.G.5X5X5X5X5X5X5X5X5X5X5Xq.q.=.7.=.=.q.5X",
"5X7.7.7.7.=.7.5X5X5X5X5X5X5X5X5X5X5X5X5X5X5X5X5X5XL.G.G.G.L.G.L.L.G.G.L.G.G.v.v.v.v.v.v.v.5X5X5X5X5X5X5X5X5X5X5X5Xq.7.7.7.7.7.5X",
"5X7.=.=.=.7.7.5X5X5X5X5X5X5X5X5X5X5X5X5X5X5X5X5X5X5X5X5X5X5X5X5X5X5X5X5X5X5Xv.M.k.v.v.k.v.L.5X5X5X5X5X5X5X5X5X5X5Xq.=.=.=.7.7.5X",
"5X#.=.#.#.=.q.5X5X5X5X5X5X5X5X5X5X5X5X5X5X5X5X5X5X5X5X5X5X5X5X5X5X5X5X5X5X5Xs.v.k.k.k.k.s.M.5X5X5X5X5X5X5X5X5X5X5Xq.=.=.#.=.#.5X",
"%.#.%.%.%.#.=.5X5X5X5X5X5X5X5X5X5X5X5X5X5X5X5X5X5X5X5X5X5X5X5X5X5X5X5X5X5X5Xs.7.q.q.q.q.7.k.5X5X5X5X5X5X5X5X5X5X5X7.' %.#.#.%.' ",
"#.#.%.] %.' 7.5X5X5X5X5X5X5X5X5X5X5X5X5X5X5X5X5X5X5X5X5X5X5X5X5X5X5X5X5X5X5X7.7.7.=.q.q.=.k.5X5X5X5X5X5X5X5X5X5X5X7.%.#.#.%.%.#.",
"#.#.' #.' ' y.5X5X5X5X5X5X5X5X5X5X5X5X5X5X5X5X5X5X5X5X5X5X5X5X5X5X5X5X5X5X5X=.7.#.7.7.=.7.q.5X5X5X5X5X5X5X5X5X5X5X7.%.#.' #.' #.",
"' #.' #.#.' 7.5X5X5X5X5X5X5X5X5X5X5X5X5X5X5X5X5X5X5X5X5X5X5X5X5X5X5X5X5X5X5X#.#.#.#.#.=.=.q.5X5X5X5X5X5X5X5X5X5X5X( ' ' #.' #.' ",
"' ' ' ( ' ( =.5X5X5X5X5X5X5X5X5X5X5X5X5X5X5X5X5X5X5X5X5X5X5X5X5X5X5X5X5X5X5X#.#.#.#.#.#.{ 7.5X5X5X5X5X5X5X5X5X5X5X#.( ( ' ' ' ' ",
"' ' ( ( T T #.5X5X5X5X5X5X5X5X5X5X5X5X5X5X5X5X5X5X5X5X5X5X5X5X5X5X5X5X5X5X5X( ( ( ( R ( R =.5X5X5X5X5X5X5X5X5X5X5X#.T T T T ( ( ",
"( T ( ( T T { 5X5X5X5X5X5X5X5X5X5X5X5X5X5X5X5X5X5X5X5X5X5X5X5X5X5X5X5X5X5X5XT ( ( ( T T R #.5X5X5X5X5X5X5X5X5X5X5X#.S ( R ( ( T ",
"( S S ( S ( ( 5X5X5X5X5X5X5X5X5X5X5XS ( S T S T ( 5X5X5X5X5X5X5X5X5X5X5X5X5XS T S T S T S { 5X5X5X5X5X5X5X5X5X5X5XT ( ( T ( S ( ",
"5XS T T T T T 5X5X5X5X5X5X5X5X5X5X5XS S C T M T S 5X5X5X5X5X5X5X5X5X5X5X5XT S S M C C C S 5X5X5X5X5X5X5X5X5X5X5X5X( T C S S ( 5X",
"5X( T S C T T 5X5X5X5X5X5X5X5X5X5X5XS M M M M z M M 5X5X5X5X5X5X5X5X5X5X5XS l M M M M M S 5X5X5X5X5X5X5X5X5X5X5X5XT T T S T S 5X",
"5XM M M M C M 5X5X5X5X5X5X5X5X5X5X5XS M l l l l z M 5X5X5X5X5X5X5X5X5X5XM M M M l l z M M 5X5X5X5X5X5X5X5X5X5X5X5XS M C C M S 5X",
"5XT C M C C M T 5X5X5X5X5X5X5X5X5X5Xl f f f l f f f l 5X5X5X5X5X5X5X5Xl f f f f f f f f M 5X5X5X5X5X5X5X5X5X5X5XT M C C M M ( 5X",
"5XT M C C z C C 5X5X5X5X5X5X5X5X5X5X5Xl f f w f f w f f w 5X5X5X5X5Xf f f f w f f f w f 5X5X5X5X5X5X5X5X5X5X5X5XM M C C M z T 5X",
"5X5XM M M M M M 5X5X5X5X5X5X5X5X5X5X5Xf 4 w w 4 4 f 4 w w f l M f w w 4 4 w w 4 4 w w w 5X5X5X5X5X5X5X5X5X5X5X5XM M M M C M 5X5X",
"5X5XS M M z M z z 5X5X5X5X5X5X5X5X5X5X5Xf 7 4 7 7 7 7 7 4 7 7 7 7 7 7 7 7 7 7 4 4 f w 5X5X5X5X5X5X5X5X5X5X5X5XM b M z M M S 5X5X",
"5X5XM z z M z z M 5X5X5X5X5X5X5X5X5X5X5X5X4 4 4 4 4 4 4 4 4 4 4 4 4 4 4 4 4 4 4 4 4 5X5X5X5X5X5X5X5X5X5X5X5X5Xl z z z z z S 5X5X",
"5X5X5XM z f f l l l 5X5X5X5X5X5X5X5X5X5X5X5X4 4 4 # w # # # # 4 4 # # 4 4 # 4 4 4 4 5X5X5X5X5X5X5X5X5X5X5X5Xl f l f w f z 5X5X5X",
"5X5X5Xl f f f f w l l 5X5X5X5X5X5X5X5X5X5X5X5X4 # 4 # # 4 4 # 4 4 # # 4 4 # # 4 5X5X5X5X5X5X5X5X5X5X5X5X5XM f f w f l f f 5X5X5X",
"5X5X5X5Xf f f s f s M 5X5X5X5X5X5X5X5X5X5X5X5X5X4 # o 4 4 o % % % % 4 % % 4 4 5X5X5X5X5X5X5X5X5X5X5X5X5X5XM w f f w f f 5X5X5X5X",
"5X5X5X5Xw w w w f f 5X5X5X5X5X5X5X5X5X5X5X5X5X5X5X5Xo o o o o o o o o o o 5X5X5X5X5X5X5X5X5X5X5X5X5X5X5X5X5Xf f w w w f 5X5X5X5X",
"5X5X5X5X5Xf 4 f w 5X5X5X5X5X5X5X5X5X5X5X5X5X5X5X5X5X5X5X5X5X% o o o 5X5X5X5X5X5X5X5X5X5X5X5X5X5X5X5X5X5X5X5X5Xw f w w 5X5X5X5X5X",
"5X5X5X5X5X5Xf w 5X5X5X5X5Xw 5X5X5X5X5X5X5X5X5X5X5X5X5X5X5X5X5X5X5X5X5X5X5X5X5X5X5X5X5X5X5X5X5X5X5X5Xw f 5X5X5X5Xl w f 5X5X5X5X5X",
"5X5X5X5X5X5X5X5X5X5X5X5Xw w f 5X5X5X5X5X5X5X5X5X5X5X5X5X5X5X5X5X5X5X5X5X5X5X5X5X5X5X5X5X5X5X5X5X5Xf 4 f w 5X5X5X5X5X5X5X5X5X5X5X",
"5X5X5X5X5X5X5X5X5X5X5Xw w 4 f 5X5X5X5X5X5X5X5X5X5X5X5X5X5X5X5X5X5X5X5X5X5X5X5X5X5X5X5X5X5X5X5X5X5X5Xw 4 4 f 5X5X5X5X5X5X5X5X5X5X",
"5X5X5X5X5X5X5X5X5X5Xw 4 4 4 5X5X5X5X5X5X5X5X5X5X5X5X5X5X5X5X5X5X5X5X5X5X5X5X5X5X5X5X5X5X5X5X5X5X5X5X5X4 4 w w 5X5X5X5X5X5X5X5X5X",
"5X5X5X5X5X5X5X5X5Xw 4 4 w 5X5X5X5X4 w 5X5X5X5X5X5X5X5X5X5X5X5X5X5X5X5X5X5X5X5X5X5X5X5X5X5Xw 4 5X5X5X5X5X4 4 4 5X5X5X5X5X5X5X5X5X",
"5X5X5X5X5X5X5X5X5X5X4 w 5X5X5X5X4 4 4 w 4 5X5X5X5X5X5X5X5X5X5X5X5X5X5X5X5X5X5X5X5X5X5X4 4 4 4 4 5X5X5X5X5Xw 5X5X5X5X5X5X5X5X5X5X",
"5X5X5X5X5X5X5X5X5X5X5X5X5X5X5X4 4 # # # 4 4 # 5X5X5X5X5X5X5X5X5X5X5X5X5X5X5X5X5X5X4 4 4 # # # # 4 5X5X5X5X5X5X5X5X5X5X5X5X5X5X5X",
"5X5X5X5X5X5X5X5X5X5X5X5X5X5X4 4 # 4 # # 4 # # 4 4 4 5X5X5X5X5X5X5X5X5X5X5X5X4 4 % # 4 # # 4 # 4 # 4 5X5X5X5X5X5X5X5X5X5X5X5X5X5X",
"5X5X5X5X5X5X5X5X5X5X5X5X5X5X4 o # o o # # o # # o # 4 # 4 # 4 4 4 4 # 4 4 # # o # # # o o # o 4 o 4 w 5X5X5X5X5X5X5X5X5X5X5X5X5X",
"5X5X5X5X5X5X5X5X5X5X5X5X5X5X5X4 % 4 o 4 4 # o o o # 4 o # o o # o % 4 # o 4 o o # o % # # # 4 o 4 5X5X5X5X5X5X5X5X5X5X5X5X5X5X5X",
"5X5X5X5X5X5X5X5X5X5X5X5X5X5X5X5X# # o o o o 4 o o o o % # % o 4 # % o o o % % # o o 4 o o o o # 5X5X5X5X5X5X5X5X5X5X5X5X5X5X5X5X",
"5X5X5X5X5X5X5X5X5X5X5X5X5X5X5X5X5X5X# o % o o 4 # o % 4 4 o o o 4 o % o 4 o o o % o o o # % 5X5X5X5X5X5X5X5X5X5X5X5X5X5X5X5X5X5X",
"5X5X5X5X5X5X5X5X5X5X5X5X5X5X5X5X5X5X5X5Xo # o o o o o o o o o o o o o o o o o o # % 4   5X5X5X5X5X5X5X5X5X5X5X5X5X5X5X5X5X5X5X5X",
"5X5X5X5X5X5X5X5X5X5X5X5X5X5X5X5X5X5X5X5X5X5X5X5X% # o o o o o o o o o o % o # % % 5X5X5X5X5X5X5X5X5X5X5X5X5X5X5X5X5X5X5X5X5X5X5X",
"5X5X5X5X5X5X5X5X5X5X5X5X5X5X5X5X5X5X5X5X5X5X5X5X5X5X5X5X5Xo o o o o 4 5X5X5X5X5X5X5X5X5X5X5X5X5X5X5X5X5X5X5X5X5X5X5X5X5X5X5X5X5X"
};
