<?xml version="1.0" standalone="no"?>
<!DOCTYPE svg PUBLIC "-//W3C//DTD SVG 20010904//EN"
 "http://www.w3.org/TR/2001/REC-SVG-20010904/DTD/svg10.dtd">
<svg version="1.0" xmlns="http://www.w3.org/2000/svg"
 width="207.000000pt" height="207.000000pt" viewBox="0 0 207.000000 207.000000"
 preserveAspectRatio="xMidYMid meet">

<g transform="translate(0.000000,207.000000) scale(0.100000,-0.100000)"
fill="lightskyblue" stroke="none">
<path d="M761 2058 c-1 -16 -32 -34 -91 -53 -17 -5 -21 -4 -16 6 5 9 3 9 -6
-1 -16 -18 -78 -54 -78 -45 0 4 -8 -1 -17 -10 -16 -16 -18 -16 -33 2 -13 17
-18 18 -28 6 -10 -10 -10 -13 3 -13 8 0 15 -7 15 -15 0 -8 -5 -15 -10 -15 -17
0 -80 -44 -80 -56 0 -6 7 -17 15 -24 16 -13 21 -35 7 -26 -5 3 -9 -1 -9 -9 0
-8 3 -13 5 -10 3 3 11 0 19 -7 7 -6 16 -8 20 -4 3 3 25 -14 48 -38 28 -29 47
-41 55 -36 7 5 20 6 28 2 10 -3 13 -1 8 6 -4 7 -1 12 8 12 8 0 16 3 18 8 2 4
19 16 38 26 30 17 33 17 21 3 -8 -10 -9 -17 -3 -17 6 0 14 9 17 20 5 17 29 26
58 21 4 0 7 4 7 10 0 11 39 3 55 -13 6 -6 4 -7 -6 -3 -11 4 -18 0 -22 -14 l-5
-21 29 21 c26 18 42 38 20 25 -5 -3 -14 0 -20 8 -10 12 1 16 60 26 80 14 296
9 307 -6 4 -5 25 -10 47 -12 55 -3 101 -22 83 -34 -9 -7 -6 -8 10 -5 31 7 160
-61 145 -76 -3 -4 -11 -3 -17 3 -8 6 -12 2 -13 -13 0 -12 1 -16 4 -9 3 6 8 10
12 7 5 -2 45 32 89 76 45 44 86 78 91 75 7 -5 7 2 0 21 -6 16 -29 39 -55 55
-25 16 -43 32 -39 37 3 5 1 12 -4 15 -5 4 -13 1 -17 -5 -5 -8 -3 -9 6 -4 9 5
11 4 6 -3 -5 -9 -13 -9 -27 -2 -11 6 -17 15 -14 21 4 5 3 9 -2 8 -4 -1 -11 0
-15 1 -9 3 -9 3 -56 14 -22 5 -32 12 -28 22 3 7 1 16 -5 19 -5 4 -6 12 -2 18
4 7 0 6 -10 -2 -18 -14 -13 -36 5 -25 7 4 8 2 4 -4 -4 -6 -12 -9 -19 -7 -142
47 -151 48 -332 51 -99 1 -187 -2 -195 -6 -8 -4 -29 -10 -47 -13 -24 -4 -33
-1 -36 11 -4 15 -5 15 -6 0z m-291 -258 c0 -5 -2 -10 -4 -10 -3 0 -8 5 -11 10
-3 6 -1 10 4 10 6 0 11 -4 11 -10z"/>
<path d="M666 2045 c-11 -8 -16 -15 -10 -16 5 0 17 -2 27 -4 9 -2 17 1 17 6 0
5 -5 9 -11 9 -5 0 -7 5 -4 10 8 13 4 12 -19 -5z"/>
<path d="M1337 2049 c7 -7 15 -10 18 -7 3 3 -2 9 -12 12 -14 6 -15 5 -6 -5z"/>
<path d="M285 1811 c4 -7 1 -20 -7 -29 -12 -16 -11 -16 6 -2 11 8 21 14 23 12
3 -2 7 -1 10 1 2 3 -5 11 -17 17 -16 9 -20 9 -15 1z"/>
<path d="M308 1775 c-21 -24 -38 -46 -38 -49 0 -3 22 -26 50 -52 27 -25 47
-52 43 -58 -3 -6 -3 -8 2 -4 13 12 34 -11 28 -30 -4 -13 -3 -14 5 -3 7 9 12
10 16 2 5 -7 23 2 51 25 l43 37 -69 66 c-69 65 -80 84 -56 95 6 3 -1 2 -17 -1
-20 -4 -27 -3 -22 6 14 22 1 10 -36 -34z"/>
<path d="M1690 1815 c0 -7 30 -13 34 -7 3 4 -4 9 -15 9 -10 1 -19 0 -19 -2z"/>
<path d="M1633 1795 c0 -8 4 -12 9 -9 5 3 6 10 3 15 -9 13 -12 11 -12 -6z"/>
<path d="M1789 1793 c-12 -16 -12 -17 2 -6 9 7 20 9 24 5 5 -4 5 -1 1 6 -9 16
-11 15 -27 -5z"/>
<path d="M1292 1788 c2 -7 -5 -12 -16 -11 -13 1 -15 -2 -7 -10 8 -8 15 -7 27
5 11 11 13 18 5 23 -7 4 -10 1 -9 -7z"/>
<path d="M1685 1756 c-25 -24 -45 -41 -45 -37 0 3 -6 -5 -13 -19 -8 -14 -19
-24 -26 -22 -7 1 -10 -2 -7 -7 4 -5 2 -12 -4 -16 -5 -3 -10 -10 -10 -14 0 -11
58 -71 68 -71 16 0 152 143 152 159 -1 9 -8 25 -18 36 -32 39 -48 37 -97 -9z"/>
<path d="M760 1775 c0 -9 6 -12 15 -9 8 4 15 7 15 9 0 2 -7 5 -15 9 -9 3 -15
0 -15 -9z"/>
<path d="M1553 1705 c-3 -9 -3 -18 -1 -21 3 -3 8 4 11 16 6 23 -1 27 -10 5z"/>
<path d="M520 1698 c0 -4 4 -8 9 -8 6 0 12 4 15 8 3 5 -1 9 -9 9 -8 0 -15 -4
-15 -9z"/>
<path d="M585 1700 c-3 -5 -1 -10 4 -10 6 0 11 5 11 10 0 6 -2 10 -4 10 -3 0
-8 -4 -11 -10z"/>
<path d="M1386 1678 c3 -5 10 -6 15 -3 13 9 11 12 -6 12 -8 0 -12 -4 -9 -9z"/>
<path d="M208 1652 c-18 -7 -71 -85 -83 -121 -3 -12 -11 -18 -17 -15 -6 4 -8
2 -5 -4 10 -15 -3 -43 -16 -35 -5 3 -7 1 -4 -4 7 -11 -16 -77 -24 -69 -2 2 -5
-7 -6 -21 0 -14 -6 -29 -13 -33 -6 -4 -11 -10 -11 -14 1 -3 1 -7 0 -8 0 -2 -2
-12 -4 -23 -2 -11 -7 -33 -10 -50 -3 -16 -9 -100 -12 -185 -6 -184 10 -285 64
-409 8 -18 16 -39 17 -45 1 -6 12 -28 24 -48 13 -21 21 -42 17 -48 -3 -5 1
-10 9 -10 9 0 16 -5 16 -11 0 -13 50 -79 60 -79 8 0 21 13 84 83 15 17 30 26
37 21 7 -4 9 -3 6 3 -4 6 2 18 12 27 12 11 17 25 13 38 -4 16 -2 19 8 13 9 -6
11 -4 6 4 -5 7 -11 10 -14 7 -10 -11 -42 27 -42 50 0 13 -7 27 -17 32 -10 6
-14 16 -10 26 4 10 1 19 -7 22 -8 3 -13 14 -11 25 2 10 0 19 -4 19 -9 0 -27
74 -41 170 -12 78 -13 113 -2 107 4 -3 7 18 7 46 1 45 9 107 15 115 2 1 3 5 4
10 19 84 31 112 45 107 12 -5 13 -3 5 5 -9 9 -5 24 12 61 14 28 28 48 32 45 4
-2 9 9 10 25 1 16 -3 29 -8 29 -6 0 -8 5 -4 12 4 6 3 8 -3 5 -5 -3 -36 22 -69
56 -32 33 -53 58 -47 53 9 -5 11 -2 7 8 -3 9 -7 16 -8 15 0 0 -9 -3 -18 -7z"/>
<path d="M1868 1650 c-9 -6 -46 -41 -83 -80 -37 -38 -72 -67 -77 -64 -6 4 -5
-3 1 -15 7 -12 9 -27 5 -33 -5 -7 -3 -8 5 -4 8 5 14 0 18 -13 3 -12 9 -21 13
-21 4 0 11 -7 14 -16 4 -10 2 -13 -7 -9 -6 4 -3 -1 7 -9 14 -11 15 -16 6 -16
-10 0 -9 -3 3 -12 9 -7 18 -22 20 -33 1 -11 6 -26 11 -33 4 -7 2 -19 -5 -28
-10 -12 -9 -13 3 -9 39 15 58 -338 21 -398 -4 -6 -8 -21 -9 -34 -4 -37 -46
-143 -57 -143 -6 0 -8 -3 -4 -6 8 -9 -21 -64 -33 -64 -20 0 -9 -42 16 -65 14
-13 23 -28 20 -33 -3 -6 2 -9 12 -8 11 1 17 -6 16 -21 0 -12 4 -19 9 -16 5 3
22 -7 38 -23 30 -29 79 -44 58 -17 -7 8 -8 13 -1 13 5 0 12 9 15 21 4 13 10
18 18 13 8 -4 10 -3 5 4 -7 12 26 86 44 97 6 4 8 11 5 16 -4 5 5 20 19 34 14
14 20 25 14 25 -9 0 -9 3 0 12 7 7 12 22 12 35 0 13 4 23 9 23 6 0 10 8 9 18
0 9 7 49 16 87 21 92 21 328 1 423 -15 74 -37 139 -61 185 -8 15 -13 27 -10
27 7 0 -36 81 -64 121 -19 25 -21 35 -12 50 8 12 8 20 2 24 -6 4 -9 1 -8 -6 2
-6 -3 -14 -11 -17 -10 -3 -12 0 -8 12 7 19 7 19 -15 6z"/>
<path d="M291 1627 c-8 -10 -7 -14 4 -14 8 0 15 6 15 14 0 7 -2 13 -4 13 -2 0
-9 -6 -15 -13z"/>
<path d="M333 1615 c0 -8 4 -12 9 -9 5 3 6 10 3 15 -9 13 -12 11 -12 -6z"/>
<path d="M90 1560 c-9 -6 -10 -10 -3 -10 6 0 15 5 18 10 8 12 4 12 -15 0z"/>
<path d="M415 1551 c-3 -5 -1 -12 5 -16 6 -4 8 -11 5 -16 -4 -5 -1 -9 4 -9 14
0 14 17 1 25 -6 4 -8 11 -5 16 4 5 4 9 1 9 -3 0 -7 -4 -11 -9z"/>
<path d="M1637 1554 c-4 -4 -4 -10 -1 -15 6 -10 34 0 34 12 0 10 -24 12 -33 3z"/>
<path d="M804 1501 c-2 -2 -4 -69 -4 -147 0 -97 4 -145 12 -150 6 -4 8 -3 4 4
-4 7 53 11 195 12 l201 1 -5 -143 c-6 -174 -10 -208 -26 -218 -7 -4 -13 -11
-13 -16 0 -5 -4 -8 -9 -6 -5 1 -8 -1 -8 -5 3 -20 -3 -30 -31 -46 -17 -10 -35
-15 -42 -11 -7 5 -8 3 -3 -6 6 -10 2 -11 -19 -6 -18 4 -25 3 -21 -4 4 -6 -6
-10 -24 -10 -17 0 -31 5 -31 11 0 5 -4 7 -10 4 -5 -3 -16 -3 -22 2 -7 4 -19 8
-27 10 -23 3 -90 86 -91 111 0 12 5 22 11 22 5 0 7 5 4 10 -4 6 -11 8 -16 5
-5 -4 -9 3 -9 14 0 20 -6 21 -92 22 -188 3 -183 5 -173 -59 5 -26 8 -55 9 -64
0 -10 3 -18 7 -18 11 0 17 -38 8 -49 -5 -6 -6 -9 -3 -6 9 6 54 -55 54 -72 0
-7 6 -13 13 -13 8 0 7 -3 -3 -9 -8 -6 -18 -7 -24 -4 -5 3 -6 1 -3 -5 4 -5 15
-8 26 -5 11 3 25 -4 37 -19 22 -29 129 -102 162 -113 12 -3 20 -10 17 -15 -3
-4 2 -11 11 -14 24 -9 31 -7 14 4 -12 8 -10 10 8 10 13 0 21 -4 18 -9 -10 -15
16 -18 119 -10 55 3 106 4 114 1 10 -4 12 -1 6 9 -7 11 -5 11 10 -1 10 -8 16
-10 12 -4 -9 15 47 39 65 28 7 -4 9 -3 5 1 -4 5 14 23 41 40 27 16 61 44 76
60 16 17 33 29 40 27 6 -2 8 0 4 4 -4 4 8 34 27 68 57 103 66 154 65 394 0
169 2 212 12 206 10 -6 10 -4 0 9 -8 9 -13 33 -12 54 1 21 2 55 1 75 l-1 37
-341 3 c-187 2 -343 1 -345 -1z"/>
<path d="M2050 1345 c0 -5 5 -17 10 -25 5 -8 10 -10 10 -5 0 6 -5 17 -10 25
-5 8 -10 11 -10 5z"/>
<path d="M1786 1231 c-4 -5 -2 -12 3 -15 5 -4 12 -2 15 3 4 5 2 12 -3 15 -5 4
-12 2 -15 -3z"/>
<path d="M560 1021 c0 -6 4 -13 10 -16 6 -3 7 1 4 9 -7 18 -14 21 -14 7z"/>
<path d="M1505 1010 c3 -5 8 -10 11 -10 2 0 4 5 4 10 0 6 -5 10 -11 10 -5 0
-7 -4 -4 -10z"/>
<path d="M658 983 c29 -2 74 -2 100 0 26 2 2 3 -53 3 -55 0 -76 -1 -47 -3z"/>
<path d="M1740 700 c0 -5 5 -10 11 -10 5 0 7 5 4 10 -3 6 -8 10 -11 10 -2 0
-4 -4 -4 -10z"/>
<path d="M650 596 c0 -2 8 -10 18 -17 15 -13 16 -12 3 4 -13 16 -21 21 -21 13z"/>
<path d="M405 502 c3 -20 -70 -100 -88 -94 -4 1 -6 -2 -2 -8 3 -5 -5 -14 -19
-20 -14 -5 -26 -12 -26 -15 0 -4 6 -3 13 1 8 5 8 2 -2 -9 -10 -13 -11 -20 -2
-30 6 -8 10 -16 8 -18 -1 -2 0 -3 2 -1 8 4 41 -31 41 -44 0 -7 5 -16 12 -20 6
-4 8 -3 5 3 -7 12 32 50 51 49 7 -1 17 -8 22 -16 5 -8 10 -10 10 -4 0 6 -7 17
-15 24 -12 10 -13 16 -4 26 6 8 16 11 22 7 6 -4 7 -1 2 6 -4 8 6 25 29 47 20
19 36 37 35 41 -1 5 -23 28 -50 52 -37 33 -47 38 -44 23z"/>
<path d="M1190 510 c-9 -6 -10 -10 -3 -10 6 0 15 5 18 10 8 12 4 12 -15 0z"/>
<path d="M1245 500 c-3 -5 1 -10 10 -10 9 0 13 5 10 10 -3 6 -8 10 -10 10 -2
0 -7 -4 -10 -10z"/>
<path d="M1591 448 c-30 -32 -49 -58 -44 -58 6 0 14 7 17 16 6 15 8 15 26 -1
16 -14 18 -21 8 -27 -8 -6 -5 -7 10 -3 12 4 22 2 22 -4 0 -14 104 -112 108
-100 2 5 9 6 14 3 6 -4 8 -2 4 4 -3 6 4 19 17 29 13 10 26 26 30 36 4 11 12
15 18 11 8 -4 9 -3 5 4 -4 6 -14 8 -23 5 -12 -5 -14 -3 -8 7 5 8 4 11 -2 7
-13 -8 -36 17 -25 27 4 4 0 6 -8 4 -8 -1 -14 3 -12 10 1 6 -3 12 -10 12 -7 0
-30 17 -53 38 l-40 38 -54 -58z"/>
<path d="M325 459 c-11 -16 -1 -19 13 -3 7 8 8 14 3 14 -5 0 -13 -5 -16 -11z"/>
<path d="M248 423 c7 -3 16 -2 19 1 4 3 -2 6 -13 5 -11 0 -14 -3 -6 -6z"/>
<path d="M180 410 c8 -5 20 -10 25 -10 6 0 3 5 -5 10 -8 5 -19 10 -25 10 -5 0
-3 -5 5 -10z"/>
<path d="M226 398 c3 -5 10 -6 15 -3 13 9 11 12 -6 12 -8 0 -12 -4 -9 -9z"/>
<path d="M1421 366 c-9 -11 -9 -16 0 -22 7 -4 9 -3 5 4 -3 5 0 12 6 15 7 2 10
7 7 11 -3 4 -12 0 -18 -8z"/>
<path d="M1477 366 c-8 -19 -148 -88 -168 -83 -10 3 -19 1 -19 -4 0 -11 -79
-32 -101 -26 -11 3 -17 1 -14 -3 3 -5 -3 -9 -12 -10 -10 0 -58 -3 -107 -6 -77
-5 -91 -4 -102 10 -7 10 -15 13 -18 7 -3 -5 -18 -7 -34 -5 -15 2 -36 5 -47 7
-15 1 -19 9 -18 27 3 24 3 24 -7 3 -8 -19 -13 -21 -42 -12 -18 5 -34 9 -36 9
-2 0 0 6 4 13 5 9 4 9 -6 0 -11 -10 -24 -7 -64 14 -28 15 -61 35 -74 45 -13 9
-31 14 -39 11 -21 -8 -53 -40 -53 -53 0 -5 -7 -10 -16 -10 -9 0 -12 -5 -8 -12
5 -8 0 -9 -14 -6 -23 6 -36 -6 -37 -32 0 -8 -5 -14 -10 -13 -6 1 -12 -10 -13
-24 -1 -17 4 -26 18 -30 11 -3 17 -9 14 -14 -3 -5 1 -9 8 -9 16 0 182 -82 186
-93 2 -4 8 -5 13 -1 18 10 31 -7 17 -23 -12 -15 -11 -15 9 -2 19 11 24 11 35
0 11 -11 10 -12 -1 -6 -10 6 -12 4 -7 -4 5 -7 12 -9 19 -3 14 10 27 10 45 -1
6 -5 17 -5 24 -1 7 4 8 3 4 -4 -5 -8 2 -10 24 -6 16 4 30 2 30 -3 0 -10 332
-10 365 0 70 22 71 22 55 1 -14 -18 -14 -18 6 -2 11 10 28 18 37 18 9 0 18 4
21 9 3 5 43 23 88 41 46 18 88 37 95 42 7 6 18 6 24 2 7 -4 9 -3 6 3 -3 5 7
17 24 27 16 9 29 14 29 11 0 -4 7 1 16 9 8 9 19 14 24 11 5 -3 12 0 16 6 4 8
3 9 -4 5 -7 -4 -12 -1 -12 8 0 29 -1 31 -21 38 -10 4 -19 14 -19 23 0 8 -6 15
-14 15 -19 0 -77 70 -69 83 3 6 1 7 -5 3 -7 -4 -12 -3 -12 2 0 12 -28 11 -33
-2z"/>
<path d="M627 350 c16 -16 50 -21 50 -7 0 7 -13 13 -30 14 -16 0 -25 -3 -20
-7z"/>
<path d="M791 293 c6 -7 17 -13 23 -12 7 0 6 2 -2 6 -6 2 -10 8 -8 12 3 4 -1
8 -9 8 -11 0 -12 -4 -4 -14z"/>
<path d="M1134 278 c-13 -16 -14 -19 -2 -10 13 10 17 10 21 0 3 -7 6 -3 6 10
1 27 -1 27 -25 0z"/>
<path d="M1637 294 c-6 -10 9 -42 16 -34 3 3 1 14 -3 24 -3 11 -9 15 -13 10z"/>
<path d="M1195 281 c-3 -5 -2 -12 3 -15 5 -3 9 1 9 9 0 17 -3 19 -12 6z"/>
<path d="M277 269 c8 -8 16 -8 30 0 16 9 14 10 -11 11 -22 0 -27 -3 -19 -11z"/>
<path d="M365 271 c-3 -5 -2 -12 3 -15 5 -3 9 1 9 9 0 17 -3 19 -12 6z"/>
<path d="M1800 270 c-9 -6 -10 -10 -3 -10 6 0 15 5 18 10 8 12 4 12 -15 0z"/>
<path d="M1375 40 c-3 -5 -5 -10 -3 -11 33 -8 38 -7 27 7 -14 17 -16 17 -24 4z"/>
<path d="M747 13 c3 -7 6 -13 8 -13 2 0 5 6 8 13 3 8 -1 14 -8 14 -7 0 -11 -6
-8 -14z"/>
<path d="M1330 6 c7 -7 13 -7 20 0 6 6 3 10 -10 10 -13 0 -16 -4 -10 -10z"/>
</g>
</svg>
