<?xml version="1.0" standalone="no"?>
<!DOCTYPE svg PUBLIC "-//W3C//DTD SVG 20010904//EN"
 "http://www.w3.org/TR/2001/REC-SVG-20010904/DTD/svg10.dtd">
<svg version="1.0" xmlns="http://www.w3.org/2000/svg"
 width="256.000000pt" height="190.000000pt" viewBox="0 0 256.000000 190.000000"
 preserveAspectRatio="xMidYMid meet">
<metadata>
Created by potrace 1.15, written by Peter Selinger 2001-2017
</metadata>
<g transform="translate(0.000000,190.000000) scale(0.100000,-0.100000)"
fill="lightskyblue" stroke="none">
<path d="M564 1891 c3 -5 20 -16 38 -25 106 -53 262 -192 354 -313 27 -35 120
-227 138 -285 8 -24 26 -74 41 -113 14 -38 39 -106 55 -150 16 -44 40 -111 55
-150 14 -38 30 -81 35 -95 4 -14 20 -56 35 -95 52 -137 57 -157 52 -236 -4
-67 -10 -83 -48 -148 -42 -70 -127 -164 -218 -243 l-43 -38 754 0 753 0 -60
38 c-147 91 -279 211 -351 320 -36 53 -109 201 -124 251 -5 14 -20 58 -35 96
-14 39 -33 88 -41 110 -9 22 -22 58 -29 80 -8 22 -26 72 -40 110 -15 39 -39
106 -55 150 -16 44 -40 109 -53 145 -14 36 -46 124 -71 195 -26 72 -56 153
-66 180 -54 144 -68 182 -75 203 l-6 22 -500 0 c-285 0 -498 -4 -495 -9z"/>
<path d="M746 1588 c-15 -46 -36 -105 -47 -133 -10 -27 -42 -115 -70 -195 -28
-80 -57 -161 -64 -180 -8 -19 -39 -105 -70 -190 -31 -85 -72 -195 -90 -245
-43 -118 -106 -254 -144 -311 -17 -25 -31 -47 -31 -50 0 -12 -115 -159 -169
-217 l-59 -62 158 -3 c87 -1 234 -1 327 0 l168 3 -40 24 c-125 75 -189 185
-188 322 1 81 16 138 91 339 35 96 79 216 97 265 32 88 52 139 113 300 17 44
52 130 77 190 65 151 64 149 20 190 -20 19 -40 35 -44 35 -4 0 -20 -37 -35
-82z"/>
<path d="M848 971 c-123 -40 -179 -176 -119 -291 25 -49 46 -67 106 -92 51
-22 84 -22 137 -2 101 38 157 151 124 250 -18 55 -51 96 -97 119 -37 20 -115
27 -151 16z"/>
</g>
</svg>
